<svg width="60" height="60" viewBox="0 0 60 60" fill="none" xmlns="http://www.w3.org/2000/svg">
<g clip-path="url(#clip0_498_14480)">
<path d="M50 12.5C50.663 12.5 51.2989 12.7634 51.7678 13.2322C52.2366 13.7011 52.5 14.337 52.5 15C52.5 15.663 52.2366 16.2989 51.7678 16.7678C51.2989 17.2366 50.663 17.5 50 17.5H47.5L47.4925 17.6775L45.16 50.355C45.0702 51.6165 44.5057 52.797 43.5803 53.6589C42.6548 54.5208 41.4372 55 40.1725 55H19.825C18.5603 55 17.3427 54.5208 16.4172 53.6589C15.4918 52.797 14.9273 51.6165 14.8375 50.355L12.505 17.68C12.5012 17.6201 12.4995 17.56 12.5 17.5H10C9.33696 17.5 8.70107 17.2366 8.23223 16.7678C7.76339 16.2989 7.5 15.663 7.5 15C7.5 14.337 7.76339 13.7011 8.23223 13.2322C8.70107 12.7634 9.33696 12.5 10 12.5H50ZM42.4925 17.5H17.5075L19.8275 50H40.1725L42.4925 17.5ZM35 5C35.663 5 36.2989 5.26339 36.7678 5.73223C37.2366 6.20107 37.5 6.83696 37.5 7.5C37.5 8.16304 37.2366 8.79893 36.7678 9.26777C36.2989 9.73661 35.663 10 35 10H25C24.337 10 23.7011 9.73661 23.2322 9.26777C22.7634 8.79893 22.5 8.16304 22.5 7.5C22.5 6.83696 22.7634 6.20107 23.2322 5.73223C23.7011 5.26339 24.337 5 25 5H35Z" fill="#B3B4BA"/>
</g>
<defs>
<clipPath id="clip0_498_14480">
<rect width="60" height="60" fill="white"/>
</clipPath>
</defs>
</svg>
