<svg width="60" height="60" viewBox="0 0 60 60" fill="none" xmlns="http://www.w3.org/2000/svg">
<path fill-rule="evenodd" clip-rule="evenodd" d="M20.625 30C20.625 27.5136 21.6127 25.129 23.3709 23.3709C25.129 21.6127 27.5136 20.625 30 20.625C32.4864 20.625 34.871 21.6127 36.6291 23.3709C38.3873 25.129 39.375 27.5136 39.375 30C39.375 32.4864 38.3873 34.871 36.6291 36.6291C34.871 38.3873 32.4864 39.375 30 39.375C27.5136 39.375 25.129 38.3873 23.3709 36.6291C21.6127 34.871 20.625 32.4864 20.625 30ZM30 24.375C28.5082 24.375 27.0774 24.9676 26.0225 26.0225C24.9676 27.0774 24.375 28.5082 24.375 30C24.375 31.4918 24.9676 32.9226 26.0225 33.9775C27.0774 35.0324 28.5082 35.625 30 35.625C31.4918 35.625 32.9226 35.0324 33.9775 33.9775C35.0324 32.9226 35.625 31.4918 35.625 30C35.625 28.5082 35.0324 27.0774 33.9775 26.0225C32.9226 24.9676 31.4918 24.375 30 24.375Z" fill="#B3B4BA"/>
<path fill-rule="evenodd" clip-rule="evenodd" d="M10.8075 26.615C9.76 28.125 9.375 29.3075 9.375 30C9.375 30.6925 9.76 31.875 10.8075 33.385C11.8225 34.8425 13.3275 36.425 15.2325 37.8875C19.05 40.8175 24.2825 43.125 30 43.125C35.7175 43.125 40.95 40.8175 44.7675 37.8875C46.6725 36.425 48.1775 34.8425 49.1925 33.385C50.24 31.875 50.625 30.6925 50.625 30C50.625 29.3075 50.24 28.125 49.1925 26.615C48.1775 25.1575 46.6725 23.575 44.7675 22.1125C40.95 19.1825 35.7175 16.875 30 16.875C24.2825 16.875 19.05 19.1825 15.2325 22.1125C13.3275 23.575 11.8225 25.1575 10.8075 26.615ZM12.9475 19.1375C17.275 15.8175 23.29 13.125 30 13.125C36.71 13.125 42.725 15.8175 47.05 19.1375C49.2175 20.8 51.0075 22.655 52.2725 24.4775C53.5025 26.25 54.375 28.1925 54.375 30C54.375 31.8075 53.5 33.75 52.2725 35.5225C51.0075 37.345 49.2175 39.1975 47.0525 40.8625C42.7275 44.1825 36.71 46.875 30 46.875C23.29 46.875 17.275 44.1825 12.95 40.8625C10.7825 39.2 8.9925 37.345 7.7275 35.5225C6.5 33.75 5.625 31.8075 5.625 30C5.625 28.1925 6.5 26.25 7.7275 24.4775C8.9925 22.655 10.7825 20.8025 12.9475 19.1375Z" fill="#B3B4BA"/>
</svg>
